<svg xmlns="http://www.w3.org/2000/svg" fill="none" viewBox="0 0 26 26" id="Cut--Streamline-Core.svg" height="26" width="26"><desc>Cut Streamline Icon: https://streamlinehq.com</desc><g id="cut--coupon-cut-discount-price-prices-scissors"><path id="Union" fill="#2859c5" fill-rule="evenodd" d="M13.928571428571429 18.107142857142858a1.3928571428571428 1.3928571428571428 0 0 0 0 2.7857142857142856H16.714285714285715a1.3928571428571428 1.3928571428571428 0 0 0 0 -2.7857142857142856H13.928571428571429Zm7.892857142857143 0a1.3928571428571428 1.3928571428571428 0 0 0 0 2.7857142857142856h2.7857142857142856a1.3928571428571428 1.3928571428571428 0 0 0 0 -2.7857142857142856h-2.7857142857142856Z" clip-rule="evenodd" stroke-width="1"></path><path id="Union_2" fill="#8fbffa" fill-rule="evenodd" d="M5.571428571428571 0a5.571428571428571 5.571428571428571 0 0 0 -2.2694285714285716 10.66L7.228 13 3.302 15.34a5.571428571428571 5.571428571428571 0 1 0 5.027285714285714 0.24700000000000003l1.6212857142857144 -0.9657142857142857 2.406857142857143 1.431857142857143a1.3928571428571428 1.3928571428571428 0 1 0 1.4244285714285716 -2.3920000000000003L12.673142857142857 13l12.647142857142857 -7.532571428571429a1.3928571428571428 1.3928571428571428 0 0 0 -1.4262857142857144 -2.3920000000000003L9.950571428571429 11.378714285714286l-1.6212857142857144 -0.9657142857142857A5.571428571428571 5.571428571428571 0 0 0 5.571428571428571 0Zm-1.014 8.167714285714286a2.7857142857142856 2.7857142857142856 0 1 0 -0.42714285714285716 -0.21171428571428572 1.3668571428571428 1.3668571428571428 0 0 1 0.29714285714285715 0.1337142857142857l0.13 0.07800000000000001ZM2.7857142857142856 20.42857142857143a2.7857142857142856 2.7857142857142856 0 0 1 1.3445714285714285 -2.384571428571429 1.3965714285714286 1.3965714285714286 0 0 0 0.29714285714285715 -0.1337142857142857l0.13 -0.07800000000000001A2.7857142857142856 2.7857142857142856 0 1 1 2.7857142857142856 20.42857142857143Z" clip-rule="evenodd" stroke-width="1"></path></g></svg>