<svg xmlns="http://www.w3.org/2000/svg" fill="none" viewBox="0 0 14 14" height="14" width="14" id="New-File--Streamline-Core.svg"><desc>New File Streamline Icon: https://streamlinehq.com</desc><g id="New-File--Streamline-Core.svg"><g id="Vector"><path fill="#ffffff" d="M8.5 0.5v4h4" stroke-width="1"></path></g><g id="Vector_2"><path fill="#ffffff" d="M8.5 0.5v4h4" stroke-width="1"></path></g><path id="Vector_3" fill="#a8c7fa" d="M12.5 12.5a1 1 0 0 1 -1 1h-9a1 1 0 0 1 -1 -1v-11a1 1 0 0 1 1 -1H9L12.5 4v8.5Z" stroke-width="1"></path><path id="Vector 2530" fill="#ffffff" d="M8.5 4.5v-4H9L12.5 4v0.5h-4Z" stroke-width="1"></path><path id="Vector_4" stroke="#1a73e8" stroke-linecap="round" stroke-linejoin="round" d="M12.5 12.5a1 1 0 0 1 -1 1h-9a1 1 0 0 1 -1 -1v-11a1 1 0 0 1 1 -1H9L12.5 4v8.5Z" stroke-width="1"></path><path id="Vector 2529" stroke="#1a73e8" stroke-linecap="round" stroke-linejoin="round" d="M8.5 0.5v4h4" stroke-width="1"></path></g></svg>