<?xml version="1.0" encoding="utf-8"?>
<!-- Generator: Adobe Illustrator 25.2.0, SVG Export Plug-In . SVG Version: 6.00 Build 0)  -->
<svg version="1.1" id="Insert-Side--Streamline-Core.svg"
	 xmlns="http://www.w3.org/2000/svg" xmlns:xlink="http://www.w3.org/1999/xlink" x="0px" y="0px" viewBox="0 0 14 14"
	 style="enable-background:new 0 0 14 14;" xml:space="preserve">
<style type="text/css">
	.st0{fill:none;stroke:#1A73E8;stroke-linecap:round;stroke-linejoin:round;}
	.st1{fill:#A8C7FA;}
</style>
<desc>Insert Side Streamline Icon: https://streamlinehq.com</desc>
<g id="Insert-Side--Streamline-Core.svg_1_">
	<path id="Vector" class="st0" d="M0.5,13H6"/>
	<path id="Vector_2" class="st0" d="M0.5,10H6"/>
	<path id="Vector_3" class="st0" d="M0.5,7H6"/>
	<path id="Vector_4" class="st0" d="M0.5,1H6"/>
	<path id="Vector_5" class="st0" d="M0.5,4H6"/>
	<path id="Vector_6" class="st1" d="M13.5,12.5v-4C13.5,8.2,13.3,8,13,8H9C8.7,8,8.5,8.2,8.5,8.5v4C8.5,12.8,8.7,13,9,13h4
		C13.3,13,13.5,12.8,13.5,12.5z"/>
	<path id="Vector_7" class="st1" d="M13.5,5.5v-4C13.5,1.2,13.3,1,13,1H9C8.7,1,8.5,1.2,8.5,1.5v4C8.5,5.8,8.7,6,9,6h4
		C13.3,6,13.5,5.8,13.5,5.5z"/>
	<path id="Vector_8" class="st0" d="M13.5,12.5v-4C13.5,8.2,13.3,8,13,8H9C8.7,8,8.5,8.2,8.5,8.5v4C8.5,12.8,8.7,13,9,13h4
		C13.3,13,13.5,12.8,13.5,12.5z"/>
	<path id="Vector_9" class="st0" d="M13.5,5.5v-4C13.5,1.2,13.3,1,13,1H9C8.7,1,8.5,1.2,8.5,1.5v4C8.5,5.8,8.7,6,9,6h4
		C13.3,6,13.5,5.8,13.5,5.5z"/>
</g>
</svg>
