<?xml version="1.0" encoding="utf-8"?>
<!-- Generator: Adobe Illustrator 25.2.0, SVG Export Plug-In . SVG Version: 6.00 Build 0)  -->
<svg version="1.1" id="Insert-Side--Streamline-Core.svg"
	 xmlns="http://www.w3.org/2000/svg" xmlns:xlink="http://www.w3.org/1999/xlink" x="0px" y="0px" viewBox="0 0 14 14"
	 style="enable-background:new 0 0 14 14;" xml:space="preserve">
<style type="text/css">
	.st0{fill-rule:evenodd;clip-rule:evenodd;fill:#5F6368;}
</style>
<desc>Insert Side Streamline Icon: https://streamlinehq.com</desc>
<g id="Insert-Side--Streamline-Core.svg_1_">
	<path id="Union" class="st0" d="M5.8,13.8c0.4,0,0.8-0.3,0.8-0.8s-0.3-0.8-0.8-0.8h-5C0.3,12.2,0,12.6,0,13s0.3,0.8,0.8,0.8H5.8z
		 M14,12.5c0,0.6-0.4,1-1,1H9c-0.6,0-1-0.4-1-1v-4c0-0.6,0.4-1,1-1h4c0.6,0,1,0.4,1,1V12.5z M14,5.5c0,0.6-0.4,1-1,1H9
		c-0.6,0-1-0.4-1-1v-4c0-0.6,0.4-1,1-1h4c0.6,0,1,0.4,1,1V5.5z M6.5,10c0,0.4-0.3,0.8-0.8,0.8h-5C0.3,10.8,0,10.4,0,10
		s0.3-0.8,0.8-0.8h5C6.2,9.2,6.5,9.6,6.5,10z M5.8,7.8c0.4,0,0.8-0.3,0.8-0.8S6.2,6.2,5.8,6.2h-5C0.3,6.2,0,6.6,0,7s0.3,0.8,0.8,0.8
		H5.8z M6.5,4c0,0.4-0.3,0.8-0.8,0.8h-5C0.3,4.8,0,4.4,0,4s0.3-0.8,0.8-0.8h5C6.2,3.2,6.5,3.6,6.5,4z M5.8,1.8
		c0.4,0,0.8-0.3,0.8-0.8S6.2,0.2,5.8,0.2h-5C0.3,0.2,0,0.6,0,1s0.3,0.8,0.8,0.8H5.8z"/>
</g>
</svg>
