<svg xmlns="http://www.w3.org/2000/svg" fill="none" viewBox="0 0 14 14" height="14" width="14" id="Insert-Side--Streamline-Core.svg"><desc>Insert Side Streamline Icon: https://streamlinehq.com</desc><g id="Insert-Side--Streamline-Core.svg"><path id="Vector" stroke="#1a73e8" stroke-linecap="round" stroke-linejoin="round" d="M13.5 1H8" stroke-width="1"></path><path id="Vector_2" stroke="#1a73e8" stroke-linecap="round" stroke-linejoin="round" d="M13.5 4H8" stroke-width="1"></path><path id="Vector_3" stroke="#1a73e8" stroke-linecap="round" stroke-linejoin="round" d="M13.5 7H8" stroke-width="1"></path><path id="Vector_4" stroke="#1a73e8" stroke-linecap="round" stroke-linejoin="round" d="M13.5 13H8" stroke-width="1"></path><path id="Vector_5" stroke="#1a73e8" stroke-linecap="round" stroke-linejoin="round" d="M13.5 10H8" stroke-width="1"></path><path id="Vector_6" fill="#a8c7fa" d="m0.5 1.5 0 4A0.5 0.5 0 0 0 1 6h4a0.5 0.5 0 0 0 0.5 -0.5v-4A0.5 0.5 0 0 0 5 1H1a0.5 0.5 0 0 0 -0.5 0.5Z" stroke-width="1"></path><path id="Vector_7" fill="#a8c7fa" d="m0.5 8.5 0 4a0.5 0.5 0 0 0 0.5 0.5h4a0.5 0.5 0 0 0 0.5 -0.5v-4A0.5 0.5 0 0 0 5 8H1a0.5 0.5 0 0 0 -0.5 0.5Z" stroke-width="1"></path><path id="Vector_8" stroke="#1a73e8" stroke-linecap="round" stroke-linejoin="round" d="m0.5 1.5 0 4A0.5 0.5 0 0 0 1 6h4a0.5 0.5 0 0 0 0.5 -0.5v-4A0.5 0.5 0 0 0 5 1H1a0.5 0.5 0 0 0 -0.5 0.5Z" stroke-width="1"></path><path id="Vector_9" stroke="#1a73e8" stroke-linecap="round" stroke-linejoin="round" d="m0.5 8.5 0 4a0.5 0.5 0 0 0 0.5 0.5h4a0.5 0.5 0 0 0 0.5 -0.5v-4A0.5 0.5 0 0 0 5 8H1a0.5 0.5 0 0 0 -0.5 0.5Z" stroke-width="1"></path></g></svg>