<svg xmlns="http://www.w3.org/2000/svg" fill="none" viewBox="0 0 14 14" height="14" width="14" id="Vertical-Slider-Square--Streamline-Core.svg"><desc>Vertical Slider Square Streamline Icon: https://streamlinehq.com</desc><g id="Vertical-Slider-Square--Streamline-Core.svg"><path id="Subtract" fill="#a8c7fa" fill-rule="evenodd" d="M0.5 12.5v-11a1 1 0 0 1 1 -1h11a1 1 0 0 1 1 1v11a1 1 0 0 1 -1 1h-11a1 1 0 0 1 -1 -1Zm4 -6.5a1.5 1.5 0 1 0 0 -3 1.5 1.5 0 0 0 0 3Zm5 3a1.5 1.5 0 1 0 0 -3 1.5 1.5 0 0 0 0 3Z" clip-rule="evenodd" stroke-width="1"></path><path id="Vector" stroke="#1a73e8" stroke-linecap="round" stroke-linejoin="round" d="m0.5 1.5 0 11a1 1 0 0 0 1 1h11a1 1 0 0 0 1 -1v-11a1 1 0 0 0 -1 -1h-11a1 1 0 0 0 -1 1Z" stroke-width="1"></path><path id="Vector_2" stroke="#1a73e8" stroke-linecap="round" stroke-linejoin="round" d="M4.5 11V6" stroke-width="1"></path><path id="Vector_3" stroke="#1a73e8" stroke-linecap="round" stroke-linejoin="round" d="M9.5 3v3" stroke-width="1"></path><path id="Vector_4" stroke="#1a73e8" stroke-linecap="round" stroke-linejoin="round" d="M9.5 9v2" stroke-width="1"></path><path id="Vector_5" fill="#ffffff" d="M4.5 6a1.5 1.5 0 1 0 0 -3 1.5 1.5 0 0 0 0 3Z" stroke-width="1"></path><path id="Vector_6" fill="#ffffff" d="M9.5 9a1.5 1.5 0 1 0 0 -3 1.5 1.5 0 0 0 0 3Z" stroke-width="1"></path><path id="Vector_7" stroke="#1a73e8" stroke-linecap="round" stroke-linejoin="round" d="M4.5 6a1.5 1.5 0 1 0 0 -3 1.5 1.5 0 0 0 0 3Z" stroke-width="1"></path><path id="Vector_8" stroke="#1a73e8" stroke-linecap="round" stroke-linejoin="round" d="M9.5 9a1.5 1.5 0 1 0 0 -3 1.5 1.5 0 0 0 0 3Z" stroke-width="1"></path></g></svg>