<svg xmlns="http://www.w3.org/2000/svg" fill="none" viewBox="0 0 14 14" height="14" width="14" id="Wrench--Streamline-Core.svg"><desc>Wrench Streamline Icon: https://streamlinehq.com</desc><g id="Wrench--Streamline-Core.svg"><path id="Union" fill="#a8c7fa" d="M13.41 3.596a0.76 0.76 0 0 0 -0.35 -0.51l-2 2a1 1 0 0 1 -1.44 0l-0.76 -0.68a1 1 0 0 1 0 -1.4l2 -2a0.76 0.76 0 0 0 -0.48 -0.43 3.8 3.8 0 0 0 -4.2 5.309L0.815 11.252a1 1 0 0 0 0.014 1.428l0.56 0.538a1 1 0 0 0 1.397 -0.01l5.428 -5.37a3.81 3.81 0 0 0 5.196 -4.242Z" stroke-width="1"></path><path id="Union_2" stroke="#1a73e8" stroke-linecap="round" stroke-linejoin="round" d="M13.41 3.596a0.761 0.761 0 0 0 -0.35 -0.51l-2 2a1 1 0 0 1 -1.44 0l-0.76 -0.68a1 1 0 0 1 0 -1.4l2 -2a0.762 0.762 0 0 0 -0.48 -0.43 3.8 3.8 0 0 0 -4.2 5.309L0.815 11.25a1 1 0 0 0 0.014 1.429l0.56 0.538a1 1 0 0 0 1.397 -0.01l5.428 -5.37a3.81 3.81 0 0 0 5.196 -4.242Z" stroke-width="1"></path></g></svg>